<?xml version="1.0" encoding="UTF-8"?>
<svg version="1.1" xmlns="http://www.w3.org/2000/svg" width="64" height="64">
<path d="M0 0 C21.12 0 42.24 0 64 0 C64 21.12 64 42.24 64 64 C42.88 64 21.76 64 0 64 C0 42.88 0 21.76 0 0 Z " fill="#4D67A3" transform="translate(0,0)"/>
<path d="M0 0 C0 1.65 0 3.3 0 5 C-1.98 5 -3.96 5 -6 5 C-6 6.65 -6 8.3 -6 10 C-4.35 10 -2.7 10 -1 10 C-1 11.65 -1 13.3 -1 15 C-2.65 15 -4.3 15 -6 15 C-6 19.29 -6 23.58 -6 28 C-7.65 28 -9.3 28 -11 28 C-11 23.71 -11 19.42 -11 15 C-12.32 15 -13.64 15 -15 15 C-15 13.35 -15 11.7 -15 10 C-13.68 10 -12.36 10 -11 10 C-11.061875 8.906875 -11.12375 7.81375 -11.1875 6.6875 C-11 3 -11 3 -10 1.0625 C-6.73357754 -0.67278693 -3.65648548 -0.17982715 0 0 Z " fill="#F8F9FB" transform="translate(40,18)"/>
</svg>
