<?xml version="1.0" encoding="UTF-8"?>
<svg version="1.1" xmlns="http://www.w3.org/2000/svg" width="100" height="100">
<path d="M0 0 C9.38498125 3.63289597 17.01322237 17.50404257 21.02734375 26.234375 C23.6647067 33.08908793 24.19107617 40.28664487 21.9375 47.3125 C17.30163232 53.7428971 12.78546306 56.63412929 5 58 C5 55 5 55 7.4375 52.4375 C8.283125 51.633125 9.12875 50.82875 10 50 C11.50156874 46.99686252 11.09281204 44.20932478 11.0625 40.875 C11.05347656 39.59367187 11.04445313 38.31234375 11.03515625 36.9921875 C11.02355469 36.00476562 11.01195313 35.01734375 11 34 C10.38640625 34.79792969 9.7728125 35.59585938 9.140625 36.41796875 C7.1209053 38.8541635 5.88552072 39.86640257 3 41 C0.875 39.625 0.875 39.625 -1 37 C-0.81195471 31.22008168 1.12001406 25.97452117 4 21 C-2.67918503 27.9898448 -7.20395333 35.37142097 -7.5625 45.25 C-7.34835706 50.55521871 -6.10200385 53.7347447 -3 58 C-9.53111997 57.510166 -14.6251885 54.59745007 -19 49.8125 C-20.87805276 44.53047662 -21.09127683 39.65024372 -18.93359375 34.41015625 C-15.94236992 29.12049886 -12.2572573 25.10143373 -7.8984375 20.91796875 C-1.63006802 14.58510988 -0.17811545 8.80861858 0 0 Z " fill="#76796B" transform="translate(49,5)"/>
<path d="M0 0 C5.08150639 0.06351883 9.70046294 1.33706512 14.5625 2.71875 C15.43261719 2.95722656 16.30273438 3.19570312 17.19921875 3.44140625 C19.32298675 4.024859 21.44374079 4.61741134 23.5625 5.21875 C23.8925 4.22875 24.2225 3.23875 24.5625 2.21875 C30.01615733 0.40086422 34.83322526 -0.1763724 40.5625 0.21875 C41.2225 0.87875 41.8825 1.53875 42.5625 2.21875 C42.23278521 5.51589793 41.9398161 6.8414339 39.5625 9.21875 C41.8725 10.20875 44.1825 11.19875 46.5625 12.21875 C46.5625 12.87875 46.5625 13.53875 46.5625 14.21875 C47.2225 14.21875 47.8825 14.21875 48.5625 14.21875 C48.9375 16.90625 48.9375 16.90625 48.5625 20.21875 C45.17392799 24.11560782 44.032163 25.07652455 38.80859375 25.58203125 C34.21630732 25.45954212 31.05706268 23.74145267 27.125 21.53125 C22.25202643 18.99432486 22.25202643 18.99432486 16.875 18.28125 C14.56873685 19.05000438 12.64839263 19.97381013 10.5625 21.21875 C4.88052815 24.33186101 1.15372347 26.08317275 -5.4375 25.21875 C-8.63129405 23.38401725 -10.03090093 22.15153611 -11.5 18.78125 C-11.4375 16.21875 -11.4375 16.21875 -9.875 13.53125 C-7.15258696 10.94844788 -5.04484616 10.12058654 -1.4375 9.21875 C-2.7575 8.22875 -4.0775 7.23875 -5.4375 6.21875 C-4.37124204 0.27816995 -4.37124204 0.27816995 0 0 Z M30.5625 7.21875 C34.5625 8.21875 34.5625 8.21875 34.5625 8.21875 Z " fill="#737768" transform="translate(32.4375,62.78125)"/>
<path d="M0 0 C0.66 0.66 1.32 1.32 2 2 C1.875 4.5 1.875 4.5 1 7 C-0.625 8.375 -0.625 8.375 -3 9 C-5.33882138 8.70764733 -7.67284 8.37400786 -10 8 C-12.32158065 8.34659295 -12.32158065 8.34659295 -14 9 C-14 8.34 -14 7.68 -14 7 C-14.99 6.67 -15.98 6.34 -17 6 C-16.67 4.68 -16.34 3.36 -16 2 C-10.45211682 0.41489052 -5.77596312 -0.39834228 0 0 Z " fill="#75786B" transform="translate(73,63)"/>
<path d="M0 0 C-0.99 0.495 -0.99 0.495 -2 1 C-2 2.65 -2 4.3 -2 6 C-3.32 6.33 -4.64 6.66 -6 7 C-6 6.34 -6 5.68 -6 5 C-6.99 4.67 -7.98 4.34 -9 4 C-8.67 2.68 -8.34 1.36 -8 0 C-4.94736336 -0.98120464 -3.05263664 -0.98120464 0 0 Z " fill="#86897D" transform="translate(65,65)"/>
<path d="M0 0 C2.52588702 2.36292656 3.88820837 3.66462511 5 7 C2.03 6.505 2.03 6.505 -1 6 C-0.67 4.02 -0.34 2.04 0 0 Z " fill="#92948A" transform="translate(41,56)"/>
</svg>
