<?xml version="1.0" standalone="no"?>
<!DOCTYPE svg PUBLIC "-//W3C//DTD SVG 20010904//EN"
 "http://www.w3.org/TR/2001/REC-SVG-20010904/DTD/svg10.dtd">
<svg version="1.0" xmlns="http://www.w3.org/2000/svg"
 width="286.000000pt" height="286.000000pt" viewBox="0 0 286.000000 286.000000"
 preserveAspectRatio="xMidYMid meet">

<g transform="translate(0.000000,286.000000) scale(0.100000,-0.100000)"
fill="#000000" stroke="none">
<path d="M1322 2679 c-60 -10 -99 -28 -123 -55 -24 -28 -35 -566 -13 -651 18
-71 63 -149 127 -218 l47 -53 0 -489 0 -490 -25 -11 c-27 -13 -34 -49 -13 -70
7 -7 40 -12 80 -12 57 0 69 3 78 20 14 27 4 57 -21 65 -18 6 -19 19 -19 496
l0 489 59 73 c32 39 72 97 87 127 l29 55 3 323 3 323 -29 28 c-45 46 -167 68
-270 50z m151 -80 c73 -20 77 -30 77 -194 0 -117 -3 -147 -14 -151 -8 -3 -42
9 -75 28 l-61 33 -62 -33 c-35 -18 -69 -32 -75 -32 -10 0 -13 39 -13 160 0
154 1 160 22 171 55 29 135 37 201 18z"/>
<path d="M415 1608 c-3 -7 -4 -229 -3 -493 l3 -480 86 -3 c73 -2 90 0 110 17
l24 19 0 374 c0 336 -2 378 -18 420 -20 51 -74 106 -136 138 -47 23 -60 25
-66 8z m129 -140 c14 -19 16 -73 16 -379 0 -197 -3 -364 -6 -373 -4 -10 -18
-16 -35 -16 l-29 0 0 405 c0 399 0 406 19 395 11 -5 27 -20 35 -32z"/>
<path d="M2304 1596 c-17 -8 -49 -25 -72 -40 l-42 -26 2 -448 3 -447 35 0 35
0 3 212 c2 185 4 212 19 217 9 4 20 3 24 -1 4 -4 26 -80 49 -168 72 -278 67
-265 100 -265 16 0 31 4 34 8 3 5 -24 120 -60 258 -49 191 -62 254 -55 271 18
41 33 197 29 295 -7 138 -29 166 -104 134z m32 -131 c3 -25 5 -90 2 -145 -4
-97 -5 -101 -36 -132 l-32 -33 0 172 c0 177 1 180 42 182 12 1 19 -11 24 -44z"/>
<path d="M740 1035 l0 -405 35 0 35 0 2 178 c3 149 5 177 18 177 12 0 20 -37
40 -175 l25 -175 38 -3 c20 -2 37 1 37 7 0 5 -11 81 -25 167 l-25 159 22 43
c18 39 20 55 15 136 -8 115 -20 157 -59 202 -31 35 -122 94 -145 94 -10 0 -13
-88 -13 -405z m119 259 c18 -23 21 -41 21 -120 0 -54 -4 -96 -10 -99 -6 -4
-22 1 -35 9 -24 16 -25 21 -25 126 0 120 9 135 49 84z"/>
<path d="M1968 1407 c-45 -26 -38 8 -83 -407 -20 -179 -37 -334 -38 -345 -2
-16 5 -21 31 -23 17 -2 32 -2 33 0 0 2 6 59 13 127 12 110 16 126 37 142 49
38 49 37 71 -156 l13 -110 38 -3 c25 -2 37 1 37 10 0 7 -20 181 -45 387 -25
206 -45 380 -45 387 0 20 -19 17 -62 -9z m27 -323 c8 -78 2 -93 -32 -94 -15 0
-16 20 -7 109 10 89 30 81 39 -15z"/>
<path d="M1045 1248 c58 -255 86 -421 84 -513 l-2 -100 37 -3 36 -3 0 90 c0
77 7 116 46 257 25 91 44 167 42 169 -15 13 -70 35 -77 31 -5 -3 -12 -27 -16
-52 -9 -60 -23 -97 -34 -90 -4 3 -14 40 -20 83 -19 116 -21 122 -52 138 -39
21 -50 19 -44 -7z"/>
<path d="M1649 1227 c-18 -12 -47 -42 -64 -65 l-30 -44 -3 -223 c-3 -215 -3
-224 17 -244 29 -29 138 -30 172 -2 23 19 23 20 27 285 4 234 2 269 -12 291
-21 32 -61 33 -107 2z m39 -289 c2 -186 0 -217 -13 -228 -13 -11 -19 -10 -33
4 -15 15 -17 41 -17 210 0 177 2 196 19 215 11 12 24 20 30 18 7 -2 12 -77 14
-219z"/>
</g>
</svg>
