<?xml version="1.0" encoding="UTF-8"?>
<svg version="1.1" xmlns="http://www.w3.org/2000/svg" width="100" height="100">
<path d="M0 0 C1.98 1.32 3.96 2.64 6 4 C4.71076019 6.78823237 3.31380469 8.98996602 1.27734375 11.28515625 C0.47671509 12.19599976 0.47671509 12.19599976 -0.34008789 13.12524414 C-0.90848389 13.76453857 -1.47687988 14.40383301 -2.0625 15.0625 C-3.25119122 16.41562113 -4.43868682 17.7697935 -5.625 19.125 C-6.49511719 20.11886719 -6.49511719 20.11886719 -7.3828125 21.1328125 C-9.49313899 23.56937304 -11.53442314 26.05722858 -13.5625 28.5625 C-17.97592574 34.01006794 -22.53103308 39.32845212 -27.10546875 44.640625 C-27.5737207 45.19145752 -28.04197266 45.74229004 -28.52441406 46.30981445 C-29.55498259 47.49026216 -30.61729225 48.64341118 -31.70214844 49.77416992 C-35.11055901 53.31813163 -35.11055901 53.31813163 -36.3046875 57.95703125 C-36.16289063 58.89933594 -36.02109375 59.84164062 -35.875 60.8125 C-35.58298803 65.99733467 -36.40665113 68.33937328 -39.6875 72.375 C-41.10752887 73.93277417 -42.5437888 75.47599498 -44 77 C-44.92598472 78.15928477 -45.84440733 79.32471672 -46.75 80.5 C-50.13754647 84.26394052 -50.13754647 84.26394052 -53 85 C-57.31569685 85.14149826 -59.64357149 85.05244547 -63.07421875 82.390625 C-66.21961747 79.09848354 -67.84167242 77.20604311 -68.44921875 72.578125 C-67.90672982 68.25708275 -66.67230949 66.61269623 -63.8125 63.375 C-63.03519531 62.47523437 -62.25789063 61.57546875 -61.45703125 60.6484375 C-54.94716495 53.6314433 -54.94716495 53.6314433 -51 51 C-49.12634766 51.14888672 -49.12634766 51.14888672 -47.21484375 51.30078125 C-44.63493779 51.36031301 -43.40220407 51.2852034 -41.27783203 49.77880859 C-39.58242536 47.99051723 -38.06600915 46.13988764 -36.5625 44.1875 C-36.00248291 43.50115479 -35.44246582 42.81480957 -34.86547852 42.10766602 C-33.22262457 40.08763223 -31.61044376 38.04589451 -30 36 C-28.48223708 34.14331915 -26.96179321 32.28882339 -25.4375 30.4375 C-24.38369141 29.13619141 -24.38369141 29.13619141 -23.30859375 27.80859375 C-20.58655958 24.4970158 -17.79861953 21.24685479 -15 18 C-9.8979167 12.08021783 -4.9125571 6.07866914 0 0 Z " fill="#727668" transform="translate(75,8)"/>
<path d="M0 0 C0.66 0 1.32 0 2 0 C3.35135503 1.53270571 4.63253887 3.12776773 5.875 4.75 C9.62110197 9.66679498 9.62110197 9.66679498 14 14 C15.11375 14 16.2275 14 17.375 14 C21.95974827 14 23.39116861 15.23095956 27 18 C28.90980718 19.93773612 30.61795189 21.9984068 32.3125 24.125 C32.97475586 24.93130859 32.97475586 24.93130859 33.65039062 25.75390625 C37.12178564 30.017396 38.36903758 32.34486149 38.27734375 37.96875 C37.82827898 41.25767508 36.40046138 42.78904872 34 45 C30.69687348 47.20208435 28.5930551 47.96705249 24.625 48.1875 C16.73083139 45.60147925 11.53015386 37.67766624 7 31 C6 29 6 29 6.25390625 26.8203125 C6.80651867 21.99369769 6.68140207 18.57962304 3.77734375 14.60546875 C1.3336109 11.5928409 -1.28961599 8.77330364 -4 6 C-2.84826645 3.53199953 -1.95216435 1.95216435 0 0 Z " fill="#737768" transform="translate(57,45)"/>
<path d="M0 0 C3.61174918 2.72144038 6.43800395 5.52667533 9.25 9.0625 C10.40048828 10.49722656 10.40048828 10.49722656 11.57421875 11.9609375 C12.37472656 12.96382812 13.17523438 13.96671875 14 15 C15.68159475 17.06739862 17.37219627 19.12719277 19.0625 21.1875 C20.375 22.79166667 21.6875 24.39583333 23 26 C22.01 28.475 22.01 28.475 21 31 C17 31 17 31 14.95703125 29.19921875 C14.24933594 28.37035156 13.54164062 27.54148437 12.8125 26.6875 C12.03261719 25.78128906 11.25273438 24.87507813 10.44921875 23.94140625 C9.23685547 22.48541016 9.23685547 22.48541016 8 21 C7.18144531 20.01902344 6.36289062 19.03804687 5.51953125 18.02734375 C2.26160016 14.07849742 -0.95564581 10.11657956 -4 6 C-2.84826645 3.53199953 -1.95216435 1.95216435 0 0 Z " fill="#74786A" transform="translate(26,8)"/>
<path d="M0 0 C0 0.33 0 0.66 0 1 C-1.5159375 1.2784375 -1.5159375 1.2784375 -3.0625 1.5625 C-7.92651732 2.90258641 -10.75505217 6.31121432 -14 10 C-14.99 9.67 -15.98 9.34 -17 9 C-11.95271282 2.51063077 -8.67031207 -0.51001836 0 0 Z " fill="#818477" transform="translate(31,59)"/>
<path d="M0 0 C2.97 1.98 2.97 1.98 6 4 C5.34 5.32 4.68 6.64 4 8 C3.34 6.68 2.68 5.36 2 4 C0.68 4 -0.64 4 -2 4 C-1.34 2.68 -0.68 1.36 0 0 Z " fill="#878A7E" transform="translate(75,8)"/>
<path d="M0 0 C1.65 1.65 3.3 3.3 5 5 C4.01 5 3.02 5 2 5 C2 4.34 2 3.68 2 3 C0.02 3.99 0.02 3.99 -2 5 C-2 2 -2 2 0 0 Z " fill="#7F8376" transform="translate(26,8)"/>
</svg>
