<?xml version="1.0" encoding="UTF-8"?>
<svg version="1.1" xmlns="http://www.w3.org/2000/svg" width="109" height="100">
<path d="M0 0 C0.99 0 1.98 0 3 0 C4.6917847 2.05388599 6.16048928 4.04378546 7.625 6.25 C8.03234375 6.83652344 8.4396875 7.42304688 8.859375 8.02734375 C12.81227402 13.85197972 12.81227402 13.85197972 13 17 C12.34 17.66 11.68 18.32 11 19 C11.5053125 19.61488281 12.010625 20.22976562 12.53125 20.86328125 C13.50578125 22.07564453 13.50578125 22.07564453 14.5 23.3125 C15.1496875 24.11300781 15.799375 24.91351562 16.46875 25.73828125 C18 28 18 28 18 31 C17.34 31.33 16.68 31.66 16 32 C16.5775 32.68707031 17.155 33.37414063 17.75 34.08203125 C18.4925 34.98308594 19.235 35.88414063 20 36.8125 C20.7425 37.70582031 21.485 38.59914062 22.25 39.51953125 C24 42 24 42 24 45 C17.73 45 11.46 45 5 45 C5 46.32 5 47.64 5 49 C5.66386719 48.97679687 6.32773437 48.95359375 7.01171875 48.9296875 C7.89472656 48.91164062 8.77773438 48.89359375 9.6875 48.875 C10.55761719 48.85179687 11.42773438 48.82859375 12.32421875 48.8046875 C15 49 15 49 17.3671875 49.98828125 C20.79239885 51.30449748 23.77464143 51.24352645 27.4375 51.3125 C37.85575999 51.74107645 48.591464 54.17987867 56 62 C58.4915904 65.7373856 58.45793285 67.57331583 58 72 C52.45631504 80.35420432 42.07223841 83.50857407 32.66796875 85.61328125 C29.25370639 86.10817433 26.38666388 85.60476141 23 85 C21.24705282 85.10461136 19.49671875 85.25655538 17.75 85.4375 C11.23252082 86.09339918 4.77678533 86.05745885 -1.76464844 85.96264648 C-3.84302249 85.94089999 -5.92178858 85.9661046 -8 86 C-8.33 86.33 -8.66 86.66 -9 87 C-15.18582958 87.35486761 -20.48424618 86.43682043 -26.4375 84.8125 C-27.2735376 84.58691406 -28.1095752 84.36132812 -28.97094727 84.12890625 C-36.14678378 82.10892686 -42.04482573 79.73894201 -47.5625 74.625 C-49.5080798 71.0722021 -49.63131968 68.99835798 -49 65 C-45.46042157 59.10070262 -40.31041481 56.47486581 -34 54 C-32.3422768 53.62470989 -30.67670885 53.27845343 -29 53 C-29 52.34 -29 51.68 -29 51 C-33.62 51 -38.24 51 -43 51 C-43 50.34 -43 49.68 -43 49 C-42.34 49 -41.68 49 -41 49 C-40.71125 48.401875 -40.4225 47.80375 -40.125 47.1875 C-39 45 -39 45 -37 42 C-37 40.68 -37 39.36 -37 38 C-35 34.75 -35 34.75 -33 32 C-33.66 31.67 -34.32 31.34 -35 31 C-33.59023295 27.96147295 -31.91129772 25.4060405 -29.875 22.75 C-29.33617188 22.04359375 -28.79734375 21.3371875 -28.2421875 20.609375 C-27.83226563 20.07828125 -27.42234375 19.5471875 -27 19 C-23.60582235 22.12621626 -21.3937282 24.56541027 -20 29 C-19.34 29 -18.68 29 -18 29 C-18 29.66 -18 30.32 -18 31 C-18.66 31.33 -19.32 31.66 -20 32 C-20 32.66 -20 33.32 -20 34 C-19.34 34 -18.68 34 -18 34 C-18.45326294 36.53827244 -18.95420304 37.94137988 -20.5625 40 C-22.3890907 42.13084232 -22.3890907 42.13084232 -22 46 C-21.37351562 46.04898438 -20.74703125 46.09796875 -20.1015625 46.1484375 C-19.28429687 46.22320312 -18.46703125 46.29796875 -17.625 46.375 C-16.81289063 46.44460937 -16.00078125 46.51421875 -15.1640625 46.5859375 C-13 47 -13 47 -11 49 C-8.78927023 49.24253813 -8.78927023 49.24253813 -6.375 49.125 C-5.55773438 49.10695312 -4.74046875 49.08890625 -3.8984375 49.0703125 C-3.27195313 49.04710937 -2.64546875 49.02390625 -2 49 C-2 47.68 -2 46.36 -2 45 C-8.27 45 -14.54 45 -21 45 C-19.99126158 40.96504633 -18.9884338 39.40388179 -16.4375 36.25 C-15.79683594 35.45078125 -15.15617187 34.6515625 -14.49609375 33.828125 C-14.00238281 33.22484375 -13.50867187 32.6215625 -13 32 C-13.66 31.67 -14.32 31.34 -15 31 C-14.38801624 27.56049636 -13.07941153 25.48435515 -10.9375 22.75 C-10.38964844 22.04359375 -9.84179688 21.3371875 -9.27734375 20.609375 C-8.85582031 20.07828125 -8.43429688 19.5471875 -8 19 C-8.66 17.68 -9.32 16.36 -10 15 C-9.04287109 13.62714844 -9.04287109 13.62714844 -8.06640625 12.2265625 C-7.23170226 11.02608934 -6.3970706 9.8255659 -5.5625 8.625 C-5.14162109 8.02171875 -4.72074219 7.4184375 -4.28710938 6.796875 C-1.9779257 3.49925179 -1.9779257 3.49925179 0 0 Z M24 57 C23.67 57.99 23.34 58.98 23 60 C20.69921875 61.24609375 20.69921875 61.24609375 17.6875 62.4375 C16.6046875 62.870625 15.521875 63.30375 14.40625 63.75 C11.19158243 64.92969452 7.96372288 65.94470519 4.6875 66.9375 C-0.42332397 68.60305105 -4.72203345 70.59558447 -8 75 C-8.58963678 77.75775342 -8.58963678 77.75775342 -8 80 C-4.7202001 81.63989995 -1.10141137 81.14526925 2.5 81.125 C3.31065918 81.12306641 4.12131836 81.12113281 4.95654297 81.11914062 C10.69525074 81.07783019 16.30385607 80.73498631 22 80 C21.81179687 79.45472656 21.62359375 78.90945312 21.4296875 78.34765625 C20.76714993 75.6181881 20.52693028 73.78818082 21 71 C23.93324862 67.46737147 27.32410599 64.73269449 31 62 C30.505 60.02 30.505 60.02 30 58 C28.02 57.67 26.04 57.34 24 57 Z " fill="#737768" transform="translate(50,7)"/>
<path d="M0 0 C3.39417765 3.12621626 5.6062718 5.56541027 7 10 C7.66 10 8.32 10 9 10 C9 10.66 9 11.32 9 12 C8.01 12.495 8.01 12.495 7 13 C7 13.66 7 14.32 7 15 C7.66 15 8.32 15 9 15 C8.54673706 17.53827244 8.04579696 18.94137988 6.4375 21 C4.6109093 23.13084232 4.6109093 23.13084232 5 27 C6.134375 27.12375 7.26875 27.2475 8.4375 27.375 C10.2009375 27.684375 10.2009375 27.684375 12 28 C12.33 28.66 12.66 29.32 13 30 C11.783125 29.95875 10.56625 29.9175 9.3125 29.875 C5.77190933 29.875 3.1783367 30.31735116 0 32 C-0.66 32.66 -1.32 33.32 -2 34 C-2 33.34 -2 32.68 -2 32 C-6.62 32 -11.24 32 -16 32 C-16 31.34 -16 30.68 -16 30 C-15.34 30 -14.68 30 -14 30 C-13.71125 29.401875 -13.4225 28.80375 -13.125 28.1875 C-12 26 -12 26 -10 23 C-10 21.68 -10 20.36 -10 19 C-8 15.75 -8 15.75 -6 13 C-6.66 12.67 -7.32 12.34 -8 12 C-6.59023295 8.96147295 -4.91129772 6.4060405 -2.875 3.75 C-2.06675781 2.69039062 -2.06675781 2.69039062 -1.2421875 1.609375 C-0.83226562 1.07828125 -0.42234375 0.5471875 0 0 Z " fill="#797C6E" transform="translate(23,26)"/>
<path d="M0 0 C0 -0.33 0 -0.66 0 -1 C2.64 -0.67 5.28 -0.34 8 0 C4.40735167 2.24734928 1.44857927 2.23200508 -2.734375 2.1953125 C-4.02988281 2.18886719 -5.32539062 2.18242188 -6.66015625 2.17578125 C-8.02344019 2.15907193 -9.38672144 2.14214206 -10.75 2.125 C-12.12889985 2.1149634 -13.50780665 2.10583873 -14.88671875 2.09765625 C-18.25798882 2.07408093 -21.62890636 2.0411727 -25 2 C-24.67 1.34 -24.34 0.68 -24 0 C-20.9378174 -0.19533059 -17.87553679 -0.38153284 -14.8125 -0.5625 C-13.51602539 -0.64661133 -13.51602539 -0.64661133 -12.19335938 -0.73242188 C-7.95250921 -0.9761489 -4.14202181 -1.15770796 0 0 Z " fill="#666A5A" transform="translate(68,89)"/>
<path d="M0 0 C-1.65 0.33 -3.3 0.66 -5 1 C-5 1.66 -5 2.32 -5 3 C-6.99284138 4.3440093 -8.99419671 5.67541292 -11 7 C-14.63597431 10.15117773 -16.58188612 12.12200473 -17 17 C-17.33 17 -17.66 17 -18 17 C-18.42178719 12.78212806 -18.33170898 10.55284829 -16.125 6.875 C-12.20498622 2.69590485 -5.67378265 -1.89126088 0 0 Z " fill="#888B80" transform="translate(19,62)"/>
<path d="M0 0 C0.99 0.33 1.98 0.66 3 1 C3 1.99 3 2.98 3 4 C-3.27 4 -9.54 4 -16 4 C-16 3.67 -16 3.34 -16 3 C-14.92878906 2.95101562 -13.85757813 2.90203125 -12.75390625 2.8515625 C-11.35674361 2.77654706 -9.9596095 2.7009987 -8.5625 2.625 C-7.85544922 2.5940625 -7.14839844 2.563125 -6.41992188 2.53125 C-4.60760812 2.42719371 -2.80182012 2.22080108 -1 2 C-0.67 1.34 -0.34 0.68 0 0 Z " fill="#7F8376" transform="translate(71,48)"/>
<path d="M0 0 C1.65 0.33 3.3 0.66 5 1 C1.17482487 3.39073445 -2.59665524 3.55966552 -7 4 C-7.33 3.34 -7.66 2.68 -8 2 C-4.94736336 1.01879536 -3.05263664 1.01879536 0 2 C0 1.34 0 0.68 0 0 Z " fill="#8B8D82" transform="translate(84,89)"/>
<path d="M0 0 C2.97 0.33 5.94 0.66 9 1 C7.3125 2.5625 7.3125 2.5625 5 4 C2.25 3.6875 2.25 3.6875 0 3 C0 2.01 0 1.02 0 0 Z " fill="#696D5E" transform="translate(74,60)"/>
<path d="M0 0 C0.99 0 1.98 0 3 0 C2.42655063 2.86724686 2.1385485 3.8614515 0 6 C-0.99 5.67 -1.98 5.34 -3 5 C-1.6875 2.5 -1.6875 2.5 0 0 Z " fill="#8C8F84" transform="translate(50,7)"/>
</svg>
