<?xml version="1.0" encoding="UTF-8"?>
<svg version="1.1" xmlns="http://www.w3.org/2000/svg" width="64" height="64">
<path d="M0 0 C21.12 0 42.24 0 64 0 C64 21.12 64 42.24 64 64 C42.88 64 21.76 64 0 64 C0 42.88 0 21.76 0 0 Z " fill="#25A7DF" transform="translate(0,0)"/>
<path d="M0 0 C1.67343448 0.29749946 3.34305915 0.62127066 5 1 C4.3773163 7.97405743 3.66319031 15.02018535 -1.875 19.875 C-7.50412195 23.70280292 -11.29468307 24.42573441 -18 24 C-20.5 23 -20.5 23 -22 22 C-19.35261084 20.5393715 -18.10551666 20 -15 20 C-15 19.34 -15 18.68 -15 18 C-15.61875 17.7525 -16.2375 17.505 -16.875 17.25 C-19.41465893 15.75608298 -20.09909878 14.78460378 -21 12 C-20.5625 9.8125 -20.5625 9.8125 -20 8 C-20.33 7.67 -20.66 7.34 -21 7 C-21.04063832 5.33382885 -21.042721 3.66611905 -21 2 C-20.505 2.268125 -20.01 2.53625 -19.5 2.8125 C-16.0763054 4.43875493 -12.55867715 5.69515171 -9 7 C-8.86078125 6.37609375 -8.7215625 5.7521875 -8.578125 5.109375 C-7.26188756 0.30688703 -4.68176402 -0.44588229 0 0 Z " fill="#F6FBFD" transform="translate(40,20)"/>
</svg>
